<?xml version="1.0" encoding="UTF-8"?>
<svg xmlns="http://www.w3.org/2000/svg" xmlns:xlink="http://www.w3.org/1999/xlink" viewBox="0 0 820.07 228.57">
  <defs>
    <style>
      .cls-8 { fill: url(#g6439); }
      .cls-6 { fill: url(#g6558); }
      .cls-7 { fill: url(#g6508); }
      .cls-25 { fill: url(#g10105); }
    </style>
    <linearGradient id="g6439" x1="471.12" y1="23.04" x2="521.76" y2="23.04" gradientUnits="userSpaceOnUse">
      <stop offset="0" stop-color="#1096a9"/>
      <stop offset=".49" stop-color="#4a4781"/>
      <stop offset="1" stop-color="#ba2366"/>
    </linearGradient>
    <linearGradient id="g6558" x1="357.05" y1="164.11" x2="531" y2="164.11" gradientUnits="userSpaceOnUse">
      <stop offset=".76" stop-color="#3b001a"/>
      <stop offset=".8" stop-color="#42173b"/>
      <stop offset=".85" stop-color="#4a305d"/>
      <stop offset=".87" stop-color="#4d3a6a"/>
      <stop offset=".9" stop-color="#48416e"/>
      <stop offset=".93" stop-color="#3a557c"/>
      <stop offset=".97" stop-color="#257592"/>
      <stop offset="1" stop-color="#1096a9"/>
    </linearGradient>
    <linearGradient id="g6508" x1="478.89" y1="61.18" x2="478.89" y2="188.76" gradientUnits="userSpaceOnUse">
      <stop offset=".28" stop-color="#002f38"/>
      <stop offset=".49" stop-color="#3f395e"/>
      <stop offset=".72" stop-color="#3b6d8b"/>
      <stop offset=".93" stop-color="#1096a9"/>
    </linearGradient>
    <linearGradient id="g10105" x1="429.24" y1="78.89" x2="538.3" y2="78.89" gradientUnits="userSpaceOnUse">
      <stop offset=".06" stop-color="#00a7b0"/>
      <stop offset=".39" stop-color="#49457c"/>
      <stop offset=".68" stop-color="#a12d66"/>
    </linearGradient>
  </defs>
  <g>
    <path class="cls-8" d="M494.64,46.08c15.12,0,27.12-10.8,27.12-25.2S511.68,0,498,0c-15.12,0-26.88,11.76-26.88,25.2,0,14.16,11.52,20.88,23.52,20.88Z"/>
    <path class="cls-6" d="M494.19,151c-1.9-2.17-2.67-4.88-2.67-4.88-.44-1.53-.49-2.86-.47-3.76-4.9,13.21-9.8,26.42-14.7,39.63,5.08,1.79,10.96,3.77,17.34,3.77,2.75,0,15.12,1.07,29.88-4.19-1.14.4,7.72-2.81,7.22-4.56-2.73-9.52-5.29-17.3-7.82-26.78-1.04.89-2.6,2.05-4.71,3.02-.82.37-3.78,1.66-8.72,1.84-4.02.14-11.39.4-15.34-4.1Z"/>
    <path class="cls-7" d="M491.68,143.91c.69-3.21,1.52-5.67,2-7.59l10.75-44.45-37.72,1.1-10.95,41.91c-1.44,5.28-2.4,10.08-2.4,14.88,0,10.3,3.28,24.88,17.86,31.41,6.15,2.75,14.07,5.67,27.65,4.49-10.42.9-11.34-3-10.76-17.35.38-9.59,2.79-20.71,3.58-24.4Z"/>
    <path class="cls-25" d="M510.01,92.5c2.57-9.87,5.14-19.75,7.71-29.62-15.11,3.95-29.25,5.12-42.59,5.44-10.08.24-22.36.18-32.47-2.93-2.86-.88-5.93-2.34-7.09-2.51-2.11,9.35-4.22,18.69-6.33,28.04,33.47,5.01,52.24,5.01,80.78,1.58Z"/>
  </g>
</svg>
